#!OML:ASF F:\VICON\USERDATA\INSTALL\rory3\rory3.ASF
:FULLY-SPECIFIED
:DEGREES
436
root -7.117 16.8087 -7.79691 182.481 -38.8414 -173.041
lowerback -7.08055 0.281496 5.24461
upperback -5.54792 -0.224974 0.104048
thorax -1.79064 -0.408459 -2.84133
lowerneck -14.6983 -0.906453 -10.0975
upperneck 26.6296 -2.94386 11.7618
head 11.3455 -1.34444 5.63412
rclavicle 5.78463e-014 3.65764e-014
rhumerus -30.9235 -1.2704 -80.7647
rradius 41.2637
rwrist 14.8523
rhand -32.0215 -54.2355
rfingers 7.12502
rthumb -5.26949 -1164.15
lclavicle 5.78463e-014 3.65764e-014
lhumerus -37.2684 -3.68556 71.7755
lradius 48.328
lwrist 22.6886
lhand -40.5579 326.317
lfingers 7.12502
lthumb -13.5055 -4.14096
rfemur -27.4083 25.9772 24.1959
rtibia 46.4115
rfoot -23.2741 -9.03141
rtoes 3.00945
lfemur -38.0364 -10.9614 -12.159
ltibia 53.9923
lfoot -26.8827 9.50671
ltoes -8.84916
437
root -7.16624 16.8111 -7.84846 182.521 -38.3905 -173.046
lowerback -7.23466 0.191619 5.38694
upperback -5.48881 -0.365162 0.237128
thorax -1.65671 -0.476842 -2.79239
lowerneck -10.4361 -1.46026 -4.69449
upperneck 22.0054 -3.10941 5.54191
head 8.72505 -1.58311 2.29413
rclavicle 6.87298e-014 2.70347e-014
rhumerus -31.4321 -0.701204 -81.3342
rradius 41.2251
rwrist 14.4749
rhand -31.4393 -53.6279
rfingers 7.12502
rthumb -4.70737 -1163.56
lclavicle 6.87298e-014 2.70347e-014
lhumerus -36.7048 -4.26639 72.9168
lradius 48.2468
lwrist 22.5482
lhand -41.0668 326.432
lfingers 7.12502
lthumb -13.996 -4.05889
rfemur -27.0612 25.9847 24.3338
rtibia 46.3441
rfoot -23.4591 -8.91779
rtoes 2.22876
lfemur -37.8259 -11.1876 -12.3145
ltibia 53.7517
lfoot -26.9262 10.5007
ltoes -10.1946
438
root -7.21268 16.8096 -7.89477 182.896 -37.7304 -173.375
lowerback -7.31611 0.156112 5.34317
upperback -5.53071 -0.42228 0.268278
thorax -1.65918 -0.508147 -2.739
lowerneck -15.0137 -0.820493 -9.88331
upperneck 27.1907 -2.86388 11.4736
head 11.6069 -1.33566 5.52298
rclavicle -1.83876e-014 -5.96354e-015
rhumerus -31.944 -0.0866469 -81.9705
rradius 41.0614
rwrist 14.0331
rhand -31.1441 -53.1134
rfingers 7.12502
rthumb -4.42226 -1163.05
lclavicle -1.83876e-014 -5.96354e-015
lhumerus -36.0651 -4.74681 74.0056
lradius 47.9691
lwrist 22.1245
lhand -41.4508 326.462
lfingers 7.12502
lthumb -14.366 -4.05505
rfemur -26.9859 26.0212 24.0818
rtibia 46.321
rfoot -23.5936 -8.69682
rtoes 1.36453
lfemur -37.6761 -11.3748 -12.6969
ltibia 53.4657
lfoot -27.0326 10.9447
ltoes -10.9729
439
root -7.26364 16.8193 -7.94309 183.345 -37.1695 -173.893
lowerback -7.23372 0.0772304 5.27102
upperback -5.69185 -0.528177 0.180146
thorax -1.88183 -0.575522 -2.7931
lowerneck -14.8786 -0.691016 -9.77954
upperneck 27.4664 -2.79337 11.4846
head 11.6731 -1.3171 5.52687
rclavicle -3.00662e-014 -2.82274e-014
rhumerus -32.7574 0.40547 -82.6999
rradius 40.8955
rwrist 14.0875
rhand -31.1596 -52.8424
rfingers 7.12502
rthumb -4.43729 -1162.78
lclavicle -3.00662e-014 -2.82274e-014
lhumerus -35.6217 -5.33211 74.9927
lradius 47.6978
lwrist 21.8501
lhand -41.1493 326.262
lfingers 7.12502
lthumb -14.0755 -4.2346
rfemur -26.8562 25.9901 23.6292
rtibia 46.3071
rfoot -23.9813 -7.95569
rtoes 2.19016
lfemur -37.4212 -11.6054 -13.2816
ltibia 53.1205
lfoot -27.1801 10.417
ltoes -12.0215
